<?xml version="1.0" standalone="no"?>
<!DOCTYPE svg PUBLIC "-//W3C//DTD SVG 20010904//EN"
 "http://www.w3.org/TR/2001/REC-SVG-20010904/DTD/svg10.dtd">
<svg version="1.0" xmlns="http://www.w3.org/2000/svg"
 width="512.000000pt" height="512.000000pt" viewBox="0 0 512.000000 512.000000"
 preserveAspectRatio="xMidYMid meet">
<metadata>
Created by potrace 1.14, written by Peter Selinger 2001-2017
</metadata>
<g transform="translate(0.000000,512.000000) scale(0.100000,-0.100000)"
fill="#000000" stroke="none">
<path d="M2470 4473 c-335 -56 -529 -428 -382 -732 15 -31 30 -57 35 -59 4 -2
7 -10 7 -17 0 -21 126 -133 182 -161 56 -29 130 -53 172 -56 30 -3 31 -6 11
-32 -36 -48 2 -116 64 -116 65 0 104 66 66 116 -21 27 -19 30 21 32 90 6 222
79 298 163 84 94 124 188 132 314 l5 80 -18 -42 c-137 -319 -580 -330 -727
-18 -86 181 -22 394 153 507 44 27 41 31 -19 21z"/>
<path d="M2486 3264 c-14 -15 -26 -32 -27 -38 0 -6 -2 -19 -4 -30 -5 -26 10
-60 36 -85 l22 -20 -44 -18 c-24 -9 -93 -41 -154 -71 -597 -292 -1002 -711
-1115 -1151 l-19 -75 57 -71 c31 -38 62 -76 68 -82 7 -7 22 -24 33 -38 l20
-26 133 50 133 50 55 -53 c102 -97 145 -136 153 -136 5 0 66 29 137 65 71 35
130 61 132 57 4 -9 102 -84 170 -130 l47 -32 45 27 c25 16 80 50 121 76 l75
49 75 -49 c41 -26 96 -60 121 -76 l46 -28 100 73 c55 40 106 77 114 83 9 7 49
-8 138 -53 69 -34 129 -62 133 -62 8 0 55 42 154 137 l55 54 40 -17 c21 -9 81
-32 131 -50 l93 -34 77 92 c111 129 104 116 87 184 -103 399 -401 748 -892
1043 -103 62 -298 161 -382 195 -44 18 -44 18 -23 34 25 20 43 61 38 88 -2 11
-4 24 -4 30 -1 6 -13 23 -27 38 -21 21 -36 26 -74 26 -38 0 -53 -5 -74 -26z"/>
<path d="M1169 1695 c0 -11 -2 -28 -4 -37 -2 -10 25 -50 63 -95 111 -130 89
-119 174 -90 40 14 97 35 126 46 29 12 58 21 65 21 7 0 35 -22 63 -48 28 -26
74 -68 103 -94 l53 -46 36 15 c20 8 81 37 134 64 l98 49 77 -58 c43 -33 96
-70 118 -84 l40 -25 119 73 c116 73 139 83 150 65 9 -13 210 -131 225 -131 13
0 165 105 207 142 21 18 23 18 154 -46 l133 -65 36 29 c20 16 68 59 106 95 49
45 76 64 90 61 11 -2 71 -22 134 -45 63 -23 118 -40 122 -39 4 2 43 45 87 97
71 82 79 97 75 125 -3 17 -6 32 -7 33 -2 2 -26 -25 -54 -60 -28 -34 -66 -79
-85 -100 l-35 -38 -113 41 c-63 22 -122 45 -132 51 -15 8 -35 -6 -120 -86 -56
-52 -106 -95 -112 -95 -5 0 -67 27 -136 61 l-126 61 -79 -58 c-123 -91 -146
-106 -160 -100 -8 3 -64 37 -125 76 l-110 70 -57 -38 c-85 -57 -178 -112 -190
-112 -6 0 -17 6 -24 13 -7 7 -35 28 -63 47 -54 37 -54 37 -104 77 l-33 27
-124 -62 c-68 -34 -130 -62 -137 -62 -12 1 -53 36 -157 135 -55 52 -56 52 -90
39 -19 -7 -80 -29 -134 -49 l-99 -36 -21 23 c-12 13 -45 52 -75 88 -85 101
-81 97 -82 75z"/>
<path d="M1160 1532 c0 -37 7 -50 66 -117 77 -88 61 -87 238 -23 l109 39 26
-23 c14 -13 32 -30 41 -38 8 -9 45 -42 82 -74 78 -67 60 -68 234 14 l112 52
89 -64 c151 -109 141 -106 204 -71 30 16 87 50 127 75 l74 46 95 -59 c151 -95
151 -94 187 -74 17 10 71 47 120 83 l88 64 112 -52 c164 -78 160 -77 198 -45
18 15 56 48 83 73 28 25 61 56 75 69 l26 23 129 -45 c72 -24 135 -45 142 -45
6 0 41 34 77 75 59 68 66 80 66 118 l0 42 -43 -50 c-23 -27 -58 -67 -78 -89
l-35 -39 -120 43 c-65 23 -128 44 -139 46 -14 3 -42 -16 -95 -67 -41 -39 -89
-82 -107 -96 l-31 -24 -134 63 -133 64 -50 -38 c-27 -21 -80 -59 -117 -84
l-68 -46 -125 77 -126 77 -87 -54 c-48 -30 -104 -65 -124 -77 l-38 -22 -87 60
c-49 33 -101 71 -117 84 l-29 24 -134 -64 c-75 -36 -139 -61 -146 -56 -15 9
-44 34 -132 117 -50 47 -76 65 -90 62 -11 -2 -74 -23 -139 -46 l-120 -43 -40
45 c-23 24 -58 64 -78 88 l-38 44 0 -42z"/>
<path d="M1170 1389 c1 -42 40 -203 53 -215 27 -26 446 -160 592 -190 11 -2
31 -6 45 -9 14 -3 36 -7 50 -10 70 -16 315 -54 390 -60 47 -4 94 -9 105 -11
28 -6 272 -6 315 0 19 2 64 7 100 11 121 12 145 15 290 41 153 27 332 69 465
111 117 37 308 105 322 115 14 11 36 97 50 198 l6 45 -53 -62 c-29 -35 -60
-63 -69 -63 -9 1 -74 20 -145 45 l-130 43 -80 -71 c-44 -40 -92 -82 -106 -95
-13 -12 -31 -22 -38 -22 -8 0 -72 27 -144 59 l-130 60 -119 -84 -120 -84 -107
63 c-59 34 -117 69 -129 76 -20 13 -26 13 -45 1 -13 -8 -71 -43 -130 -77
l-107 -63 -103 72 c-57 39 -109 77 -116 84 -17 16 -16 17 -61 -6 -21 -11 -83
-40 -138 -64 l-100 -45 -29 27 c-16 14 -66 58 -110 98 l-81 72 -129 -44 c-146
-50 -158 -52 -176 -27 -7 10 -30 38 -50 62 -35 40 -38 42 -38 19z"/>
<path d="M1347 978 c8 -35 20 -68 26 -75 14 -13 172 -72 284 -107 76 -23 90
-27 163 -47 64 -17 210 -49 248 -55 20 -2 60 -9 87 -14 205 -39 517 -46 705
-16 14 2 47 7 73 11 27 4 57 8 67 10 9 2 35 6 56 9 22 4 46 8 54 11 8 2 27 6
41 9 111 19 475 131 567 174 33 15 38 24 53 80 11 42 13 62 5 62 -6 0 -69 -20
-141 -45 -177 -60 -374 -112 -535 -141 -108 -19 -152 -26 -242 -38 -63 -8
-234 -20 -293 -20 -60 0 -237 12 -285 19 -14 2 -47 6 -74 9 -27 4 -59 8 -70
11 -12 2 -39 7 -61 10 -166 22 -434 93 -634 167 -57 21 -105 38 -106 38 -1 0
4 -28 12 -62z"/>
</g>
</svg>
